# xmcd
#
# Track frame offsets: 
#        150
#        28487
#        48493
#        77743
#        97178
#        118013
#        140729
#        160421
#
# Disc length: 2593 seconds
#
# Revision: 2
# Processed by: cddbd v1.5.2PL0 Copyright (c) Steve Scherf et al.
# Submitted via: ExactAudioCopyFreeDBPlugin 1.0
#
DISCID=740a1f08
DTITLE=Roy Ayers and Wayne Henderson - Prime Time [Disc II]
DYEAR=1980
DGENRE=Jazz+Funk
TTITLE0=You Make Me Feel Like (Rockin' With Ya)
TTITLE1=Thank You, Thank You
TTITLE2=Weekend Lover
TTITLE3=Tell Me What You Want
TTITLE4=Can You Dance
TTITLE5=It Ain't Your Sign, It's Your Mind
TTITLE6=Have Your Way
TTITLE7=Million Dollar Baby (Feel So Real)
EXTD=
EXTT0=
EXTT1=
EXTT2=
EXTT3=
EXTT4=
EXTT5=
EXTT6=
EXTT7=
PLAYORDER=
